<svg version="1.1" xmlns="http://www.w3.org/2000/svg" xmlns:xlink="http://www.w3.org/1999/xlink" width="512.000000pt" height="512.000000pt" viewBox="0,0,256,256"><g fill="#c82333" fill-rule="nonzero" stroke="none" stroke-width="1" stroke-linecap="butt" stroke-linejoin="miter" stroke-miterlimit="10" stroke-dasharray="" stroke-dashoffset="0" font-family="none" font-weight="none" font-size="none" text-anchor="none" style="mix-blend-mode: normal"><g transform="translate(0,0.02979) scale(0.5,0.5)"><g transform="translate(0,512) scale(0.1,-0.1)"><path d="M2196,5109c-290,-44 -566,-215 -727,-451c-58,-85 -115,-205 -143,-300l-24,-83l-358,-5c-343,-5 -361,-6 -399,-27c-77,-41 -115,-105 -115,-193c0,-58 23,-111 67,-152c50,-48 90,-58 228,-58h125v-1395c0,-924 4,-1428 11,-1492c49,-442 359,-800 797,-921l97,-27h805h805l97,27c438,121 748,479 797,921c7,64 11,568 11,1492v1395h128c102,0 135,4 167,19c77,36 125,111 125,196c0,83 -39,148 -115,188c-38,21 -56,22 -399,27l-358,5l-24,83c-47,162 -163,352 -285,467c-127,120 -301,216 -474,262c-98,26 -107,26 -440,29c-187,1 -367,-2 -399,-7zM2939,4670c137,-38 258,-119 337,-223c46,-61 94,-147 94,-167c0,-7 -259,-10 -810,-10c-551,0 -810,3 -810,10c0,19 47,105 89,160c79,106 197,187 331,227c70,21 94,22 385,22c282,1 317,-1 384,-19zM2188,2978c69,-17 136,-88 152,-159c8,-39 10,-237 8,-719l-3,-665l-28,-47c-49,-84 -149,-124 -244,-97c-59,16 -127,81 -142,135c-7,26 -11,266 -11,715v675l26,53c28,56 79,98 136,111c47,11 54,11 106,-2zM3100,2952c31,-19 52,-43 72,-81l28,-53v-675c0,-506 -3,-686 -12,-717c-17,-57 -82,-119 -141,-135c-95,-27 -195,13 -244,97l-28,47l-3,665c-2,482 0,680 8,719c10,43 22,64 59,101c75,75 170,87 261,32z"></path></g></g></g></svg>